<?xml version="1.0" standalone="no"?><!DOCTYPE svg PUBLIC "-//W3C//DTD SVG 1.1//EN" "http://www.w3.org/Graphics/SVG/1.1/DTD/svg11.dtd"><svg class="icon" width="200px" height="200.00px" viewBox="0 0 1024 1024" version="1.1" xmlns="http://www.w3.org/2000/svg"><path d="M142.222222 56.888889h739.555556a85.333333 85.333333 0 0 1 85.333333 85.333333v739.555556a85.333333 85.333333 0 0 1-85.333333 85.333333H142.222222a85.333333 85.333333 0 0 1-85.333333-85.333333V142.222222a85.333333 85.333333 0 0 1 85.333333-85.333333z" fill="#FF8616" /><path d="M607.914667 647.011556h-38.442667l-47.729778-103.480889h-127.559111l-47.303111 103.480889h-40.135111l146.147555-321.450667h10.979556l144.042667 321.450667z m-102.656-140.231112l-46.876445-104.334222-47.317333 104.334222h94.193778z m174.464 140.231112h-36.337778V337.806222h36.337778v309.205334z" fill="#FFFFFF" /></svg>