<?xml version="1.0" standalone="no"?><!DOCTYPE svg PUBLIC "-//W3C//DTD SVG 1.1//EN" "http://www.w3.org/Graphics/SVG/1.1/DTD/svg11.dtd"><svg class="icon" width="200px" height="132.64px" viewBox="0 0 1544 1024" version="1.1" xmlns="http://www.w3.org/2000/svg"><path d="M783.5 228.1h176.8v729.5c0 37.7-28.7 66.4-66.4 66.4H186.7c-37.7 0-66.4-28.7-66.4-66.4v-884c0-37.7 28.7-66.4 66.4-66.4h552.7V184h44c0.1 0.1 0.1 44.1 0.1 44.1z m-66.1-22V29H186.7c-24.4 0-44.3 19.9-44.3 44.3v884c0 24.4 19.9 44.3 44.3 44.3h707.2c24.4 0 44.3-19.9 44.3-44.3V250.1H761.4v-44.3h-44v0.3zM1335.8 433.1h-33.2V189.9h22v22h22v22h22v22h22v22h22v22h22v22h22v22h22v22h22v22h22v22h22v22h-243.2V399c1.5 18.7 16.9 34.1 34.4 34.1z" fill="#9FA0A6" /><path d="M209 891.3h663.1v44.3H209zM209 780.5h663.1v44.3H209zM209 670.1h663.1v44.3H209z" fill="#9FA0A6" /><path d="M98.3 117.4h353.6c24.4 0 44.3 19.9 44.3 44.3v353.6c0 24.4-19.9 44.3-44.3 44.3H98.3c-24.4 0-44.3-19.9-44.3-44.3V161.8c0.3-24.5 20.2-44.4 44.3-44.4z" fill="#02D107" /><path d="M329.7 317.4c9.7 0 17.5-7.8 17.5-17.5s-7.8-17.5-17.5-17.5-17.5 7.8-17.5 17.5 7.9 17.5 17.5 17.5z m-111.6 0c9.7 0 17.5-7.8 17.5-17.5s-7.8-17.5-17.5-17.5-17.5 7.8-17.5 17.5 7.8 17.5 17.5 17.5z m184.6 41.7V443c0 11.5-9.4 20.8-20.8 20.8H165.6c-11.5 0-20.8-9.4-20.8-20.8v-83.6h258v-0.3z m0-7h-258v-6.9c0-40.7 20.5-76.6 51.9-98.1l-20.5-35.3c-1.8-3.3-0.9-7.5 2.4-9.7 3.3-1.8 7.5-0.9 9.7 2.4l20.2 35.3c16.3-8.4 35-13.3 54.9-13.3h20.8c20.2 0 39.2 5.1 56.1 13.9l20.8-35.9c1.8-3.3 6-4.5 9.7-2.4 3.3 1.8 4.5 6 2.4 9.7L352.3 248c30.8 21.4 50.7 57 50.7 97.1v6.9h-0.3z" fill="#FFFFFF" /></svg>