<?xml version="1.0" standalone="no"?><!DOCTYPE svg PUBLIC "-//W3C//DTD SVG 1.1//EN" "http://www.w3.org/Graphics/SVG/1.1/DTD/svg11.dtd"><svg class="icon" width="200px" height="200.00px" viewBox="0 0 1024 1024" version="1.1" xmlns="http://www.w3.org/2000/svg"><path fill="#1296db" d="M432.798 737.89c-31.415 28.55-69.583 42.773-114.71 42.773-37.145 0-71.63-10.54-103.556-31.312-31.722-20.875-55.155-52.392-70.3-94.551-15.042-42.262-22.615-91.482-22.615-148.069 0-43.797 6.344-86.467 19.135-127.706 12.689-41.341 34.689-74.188 66.309-98.747 31.415-24.354 70.504-36.634 117.473-36.634 40.624 0 74.393 10.949 101.305 32.95 26.81 22.205 47.378 57.406 61.499 105.705l79.304-20.466c-16.373-61.295-45.127-108.877-86.774-142.748-41.545-33.871-92.812-50.96-153.697-50.96-53.722 0-102.942 13.507-147.66 40.317-44.82 26.708-79.202 65.899-103.454 117.371-24.252 51.573-36.327 111.947-36.327 181.326 0 63.444 10.642 122.896 32.233 178.051 21.387 55.462 52.801 97.621 93.835 126.785 41.034 29.266 94.449 43.694 160.144 43.694 63.341 0 117.064-18.931 160.963-56.792 43.899-37.964 74.29-93.119 91.175-165.363l-80.635-22.205c-11.256 56.076-32.438 98.338-63.648 126.58v0zM559.378 548.377h205.475v40.931h-205.475v-40.931zM641.65 473.78h40.931v190.024h-40.931v-190.024zM783.477 548.377h205.475v40.931h-205.475v-40.931zM865.749 473.78h40.931v190.024h-40.931v-190.024z" /></svg>