<?xml version="1.0" standalone="no"?><!DOCTYPE svg PUBLIC "-//W3C//DTD SVG 1.1//EN" "http://www.w3.org/Graphics/SVG/1.1/DTD/svg11.dtd"><svg class="icon" width="200px" height="191.76px" viewBox="0 0 1068 1024" version="1.1" xmlns="http://www.w3.org/2000/svg"><path fill="#1296db" d="M912.696097 403.18887c12.288 0 22.26087-10.061913 22.26087-22.394435V111.972174A111.749565 111.749565 0 0 0 823.652619 0h-712.347826A111.749565 111.749565 0 0 0 0.000445 111.972174v761.588869a111.749565 111.749565 0 0 0 111.304348 111.972174h712.347826a111.749565 111.749565 0 0 0 111.304348-111.972174v-134.41113a22.349913 22.349913 0 0 0-22.26087-22.394435c-12.288 0-22.26087 10.061913-22.260869 22.394435v134.41113c0 37.042087-29.96313 67.227826-66.782609 67.227827h-712.347826c-36.819478 0-66.782609-30.185739-66.782609-67.227827V223.98887h845.913044v156.805565c0 12.332522 9.97287 22.394435 22.260869 22.394435zM44.522184 179.2v-67.227826c0-37.042087 29.96313-67.183304 66.782609-67.183304h712.347826c36.819478 0 66.782609 30.141217 66.782609 67.227826v67.183304H44.522184z m66.782609-44.78887c12.288 0 22.26087-10.061913 22.26087-22.438956a22.349913 22.349913 0 0 0-22.26087-22.394435c-12.288 0-22.26087 10.061913-22.26087 22.394435 0 12.377043 9.97287 22.438957 22.26087 22.438956z m89.043478 0c12.288 0 22.26087-10.061913 22.26087-22.438956a22.349913 22.349913 0 0 0-22.26087-22.394435c-12.288 0-22.26087 10.061913-22.260869 22.394435 0 12.377043 9.97287 22.438957 22.260869 22.438956z m89.043479 0c12.288 0 22.26087-10.061913 22.260869-22.438956a22.349913 22.349913 0 0 0-22.260869-22.394435c-12.288 0-22.26087 10.061913-22.26087 22.394435 0 12.377043 9.97287 22.438957 22.26087 22.438956z m697.032347 404.034783c54.494609 8.993391 82.098087 31.298783 82.098087 66.337391 0 37.665391-39.17913 67.227826-89.088 67.227826-47.326609 0-85.526261-26.802087-88.909913-62.285913a22.26087 22.26087 0 0 1 44.343652-4.274087c0.845913 9.082435 18.209391 21.726609 44.52174 21.726609 26.846609 0 44.610783-13.490087 44.610782-22.394435 0-6.722783-7.791304-16.027826-44.788869-22.171826l-2.938435-23.240348-3.561739 22.127305C918.038706 572.505043 890.435228 550.199652 890.435228 515.116522c0-37.709913 39.134609-67.227826 89.043478-67.227826 47.37113 0 85.570783 26.713043 88.954435 62.241391a22.349913 22.349913 0 0 1-20.034783 24.397913c-11.753739 1.691826-23.151304-7.791304-24.308869-20.168348-0.890435-9.037913-18.253913-21.637565-44.566261-21.637565-26.802087 0-44.566261 13.490087-44.566261 22.394435 0 5.520696 5.787826 15.760696 44.877913 22.127304l6.589217 1.157565z m-222.653217 0c54.494609 8.993391 82.098087 31.298783 82.098087 66.337391 0 37.665391-39.17913 67.227826-89.088 67.227826-47.326609 0-85.526261-26.802087-88.909913-62.285913a22.349913 22.349913 0 0 1 20.034783-24.397913 22.394435 22.394435 0 0 1 24.308869 20.168348c0.845913 9.037913 18.209391 21.682087 44.521739 21.682087 26.846609 0 44.610783-13.490087 44.610783-22.394435 0-6.722783-7.791304-16.027826-44.744348-22.171826l-2.982957-23.240348-3.561739 22.127305c-54.628174-8.993391-82.276174-31.298783-82.276174-66.337392 0-37.709913 39.134609-67.227826 89.043479-67.227826 47.37113 0 85.570783 26.713043 88.954434 62.241392a22.349913 22.349913 0 0 1-20.034782 24.397913c-11.887304 1.691826-23.151304-7.791304-24.30887-20.168348-0.890435-8.993391-18.253913-21.637565-44.566261-21.637565-26.802087 0-44.566261 13.490087-44.56626 22.394434 0 5.520696 5.787826 15.760696 44.877913 22.127305l6.589217 1.157565z m-162.726957 43.942957c12.288 0 22.26087 10.017391 22.26087 22.394434 0 37.042087-29.96313 67.227826-66.782609 67.227826h-44.521739c-36.819478 0-66.782609-30.185739-66.782608-67.227826V515.116522c0-37.042087 29.96313-67.183304 66.782608-67.183305h44.521739c36.819478 0 66.782609 30.141217 66.782609 67.227826a22.349913 22.349913 0 0 1-22.26087 22.349914 22.349913 22.349913 0 0 1-22.260869-22.394435 22.349913 22.349913 0 0 0-22.26087-22.394435h-44.521739c-12.243478 0-22.26087 10.061913-22.260869 22.394435v89.622261c0 12.332522 10.017391 22.394435 22.260869 22.394434h44.521739c12.243478 0 22.26087-10.061913 22.26087-22.394434 0-12.377043 9.97287-22.394435 22.260869-22.394435z" /></svg>