<?xml version="1.0" standalone="no"?><!DOCTYPE svg PUBLIC "-//W3C//DTD SVG 1.1//EN" "http://www.w3.org/Graphics/SVG/1.1/DTD/svg11.dtd"><svg class="icon" width="200px" height="200.00px" viewBox="0 0 1024 1024" version="1.1" xmlns="http://www.w3.org/2000/svg"><path fill="#1296db" d="M692.224 49.664c5.632 0 10.24 2.048 14.336 6.144l231.936 221.696c3.584 3.584 6.144 8.704 6.144 14.848v607.744c0 39.424-32.256 71.68-71.68 71.68h-707.072c-39.424 0-71.68-32.256-71.68-71.68V121.344c0-39.424 32.256-71.68 71.68-71.68h526.336m-526.336 880.128h707.072c16.384 0 30.208-13.824 30.208-30.208v-578.56h-224.768c-11.264-0.512-19.968-9.216-19.968-20.48v-209.92h-492.544c-16.384 0-30.208 13.824-30.208 30.208v778.752c0 16.384 13.824 30.208 30.208 30.208m541.184-650.752h154.112l13.312 0.512h6.656l-4.608-4.608-9.728-9.216-154.112-147.456-8.704-8.192-4.096-4.096v173.056h7.168M154.112 692.224h-0.512 0.512z"  /><path fill="#1296db" d="M495.104 348.672c43.52 0 78.336 11.776 103.936 35.328 25.6 23.04 38.4 51.712 38.4 84.992 0 18.944-4.608 36.864-13.312 52.736-9.216 16.384-27.136 36.864-53.76 60.416-18.432 16.384-30.72 28.672-36.864 36.864-6.144 8.192-10.24 17.408-13.312 28.16-2.048 7.68-3.584 18.944-4.096 33.792-0.512 6.144-5.632 11.264-11.776 11.264h-21.504c-6.656 0-11.776-5.12-11.776-11.776 0-21.504 3.072-39.936 9.216-55.296 4.608-11.776 11.776-23.552 21.504-35.328 7.168-8.704 20.992-22.016 39.936-38.912 19.968-17.92 32.768-31.744 38.912-42.496 6.144-10.752 9.728-23.552 9.216-35.84 0-23.04-9.216-44.032-27.136-61.44-17.92-17.408-40.448-26.112-66.56-26.112-25.088 0-46.592 8.192-63.488 24.064-12.288 11.776-21.504 27.648-27.648 48.64-3.072 10.24-12.8 17.408-23.04 17.408h-3.072c-7.168-1.024-13.312-4.608-17.408-10.752-4.096-6.144-5.12-13.312-3.072-20.48 7.68-25.6 20.48-46.592 37.888-61.952 24.576-22.016 57.856-33.28 98.816-33.28M492.544 751.104c14.848 0 27.136 12.288 27.136 27.136 0 7.168-2.56 13.824-7.68 18.944s-11.776 7.68-18.944 7.68c-14.848 0-27.136-12.288-27.136-27.136 0-7.168 2.56-13.824 7.68-18.944 5.12-4.608 11.776-7.68 18.944-7.68"  /></svg>