<?xml version="1.0" standalone="no"?><!DOCTYPE svg PUBLIC "-//W3C//DTD SVG 1.1//EN" "http://www.w3.org/Graphics/SVG/1.1/DTD/svg11.dtd"><svg class="icon" width="200px" height="200.00px" viewBox="0 0 1024 1024" version="1.1" xmlns="http://www.w3.org/2000/svg"><path d="M776.2 226.5h176.5v728.3c0 37.6-28.6 66.3-66.3 66.3h-706c-37.6 0-66.3-28.6-66.3-66.3V72.2c0-37.6 28.6-66.3 66.3-66.3h551.8v176.5h44v44.1zM710 204.2V27.7H180.5c-24.4 0-44.3 19.9-44.3 44.3v882.5c0 24.4 19.9 44.3 44.3 44.3h706c24.4 0 44.3-19.9 44.3-44.3v-706H754.3v-44.3H710z" fill="#9FA0A6" /><path d="M202.5 888.2h662v44.3h-662zM202.5 777.9h662v44.3h-662zM202.5 667.7h662V712h-662z" fill="#9FA0A6" /><path d="M92.2 115.9h353c24.4 0 44.3 19.9 44.3 44.3v353c0 24.4-19.9 44.3-44.3 44.3h-353c-24.4 0-44.3-19.9-44.3-44.3v-353c0.4-24.4 20.2-44.3 44.3-44.3z" fill="#F9D919" /><path d="M174.8 352.1v-8.4c0-4.2 3.3-7.5 7.5-7.5h45.5c4.2 0 7.5 3.3 7.5 7.5v44.6c0 2.4-1.2 4.5-2.7 6-5.7 4.5-13.3 8.7-22.9 12.7-11.1 4.2-22.6 6.6-34 6.6-14.5 0-27.1-3-38-9-10.8-6-19-14.8-24.4-26.2-5.4-11.4-8.1-23.8-8.1-37 0-14.5 3-27.4 9-38.6 6-11.1 15.1-19.9 26.8-25.9 9-4.5 20.2-6.9 33.4-6.9 17.2 0 30.7 3.6 40.4 10.8 7.5 5.4 13 12.7 16.3 21.7 1.8 4.2-1.2 9-5.7 9.9l-13.6 2.4c-3.3 0.6-6.6-0.9-8.1-3.9-2.1-4.5-5.1-8.1-9-11.1-5.4-3.9-12-6-20.2-6-12.3 0-22 3.9-29.2 11.7-7.2 7.8-10.8 19.3-10.8 34.6 0 16.6 3.6 28.9 11.1 37 7.2 8.1 16.9 12.3 28.9 12.3 6 0 11.7-1.2 17.8-3.6 4.5-1.8 8.4-3.6 11.7-6 2.1-1.5 3.6-3.9 3.6-6.3v-6.3c0-4.2-3.3-7.5-7.5-7.5h-17.2c-4.5-0.1-8.1-3.7-8.1-7.6z m85.8 50.6V279.8c0-4.5 3.6-8.1 8.1-8.1h11.7c4.5 0 8.1 3.6 8.1 8.1v122.9c0 4.5-3.6 8.1-8.1 8.1h-11.7c-4.5-0.3-8.1-3.9-8.1-8.1z m54.8 0.9v-125c0-3.9 3-6.9 6.9-6.9h81.3c3.9 0 6.9 3 6.9 6.9v9.3c0 3.9-3 6.9-6.9 6.9h-53.3c-3.9 0-6.9 3-6.9 6.9v19c0 3.9 3 6.9 6.9 6.9h44c3.9 0 6.9 3 6.9 6.9v9.3c0 3.9-3 6.9-6.9 6.9h-44c-3.9 0-6.9 3-6.9 6.9V403c0 3.9-3 6.9-6.9 6.9h-13.9c-3.9 0.6-7.2-2.4-7.2-6.3z" fill="#FFFFFF" /></svg>