<?xml version="1.0" standalone="no"?><!DOCTYPE svg PUBLIC "-//W3C//DTD SVG 1.1//EN" "http://www.w3.org/Graphics/SVG/1.1/DTD/svg11.dtd"><svg class="icon" width="200px" height="200.00px" viewBox="0 0 1024 1024" version="1.1" xmlns="http://www.w3.org/2000/svg"><path fill="#1296db" d="M869 581.1v-16.5h-54.9c-26.6 0.6-39.8 9.7-39.5 27.4 0 7.8 3.4 14.3 10.3 19.8 6.6 6 17.5 9 32.7 9 19.2 0.3 32.7-2 40.6-6.8 7.3-4.8 10.8-15.8 10.8-32.9z m0 80.1V641h-0.9c-4.2 7.8-10.8 13.5-19.8 17.1-8.8 3.8-20.9 5.7-36.4 5.7-25.5-0.3-45.1-7-58.8-20.2-14.5-12.9-21.7-29.3-21.7-49.4 0-19.2 6.3-35.1 18.9-47.6 12.6-12.9 31-19.5 55.3-19.8H869V503c0.3-20.1-15.3-29.8-46.8-29.2-11.4 0-20.4 1.2-27 3.5-6.9 2.8-12.3 7.5-16.2 14.1L743 464c17.4-22.8 43.1-34 77.1-33.4 28.7-0.3 51.6 5.1 68.7 16.2 17.1 11.4 25.8 31 26.1 58.8v155.7l-45.9-0.1z m-267.8 0l-83.6-227.9h48.5L619.6 593h0.9l53.4-159.6h48.7L639 661.2h-37.8z m-156.5-80.1v-16.5h-54.9c-26.6 0.6-39.8 9.7-39.5 27.4 0 7.8 3.4 14.3 10.3 19.8 6.6 6 17.5 9 32.7 9 19.2 0.3 32.7-2 40.6-6.8 7.2-4.8 10.8-15.8 10.8-32.9z m0 80.1V641h-0.9c-4.2 7.8-10.8 13.5-19.8 17.1-8.8 3.8-20.9 5.7-36.4 5.7-25.5-0.3-45.1-7-58.8-20.2-14.5-12.9-21.7-29.3-21.7-49.4 0-19.2 6.3-35.1 18.9-47.6 12.6-12.9 31-19.5 55.3-19.8h63.4V503c0.3-20.1-15.3-29.8-46.8-29.2-11.4 0-20.4 1.2-27 3.5-6.9 2.8-12.3 7.5-16.2 14.1l-36-27.4c17.4-22.8 43.1-34 77.1-33.4 28.7-0.3 51.6 5.1 68.7 16.2 17.1 11.4 25.8 31 26.1 58.8v155.7l-45.9-0.1z m-323.4-67.4c4.5 6 10.4 10.9 17.6 14.7 7.2 4.5 15.6 6.8 25.2 6.8 12.9 0.3 25.2-4.2 36.9-13.4 5.7-4.5 10.2-10.5 13.4-18 3.4-7.2 5-16.2 5-27V341.1h48.5v220.6c-0.6 32.2-11.1 57.1-31.6 74.6-20.3 18-44 27.2-70.9 27.4-37.2-0.9-64.9-14.8-83.2-41.7l39.1-28.2z"  /></svg>