<?xml version="1.0" standalone="no"?><!DOCTYPE svg PUBLIC "-//W3C//DTD SVG 1.1//EN" "http://www.w3.org/Graphics/SVG/1.1/DTD/svg11.dtd"><svg class="icon" width="200px" height="200.00px" viewBox="0 0 1024 1024" version="1.1" xmlns="http://www.w3.org/2000/svg"><path d="M789.3 223.5h177.4v731.9c0 37.8-28.8 66.6-66.6 66.6H190.5c-37.8 0-66.6-28.8-66.6-66.6V68.6C124 30.7 152.7 2 190.5 2H745v177.4h44.2v44.1h0.1zM723 201.4V24.1H190.5C166 24.1 146 44 146 68.6v886.9c0 24.5 20 44.5 44.5 44.5H900c24.5 0 44.5-20 44.5-44.5V245.6H767.2v-44.5H723v0.3z" fill="#9FA0A6" /><path d="M212.9 888.8h665.3v44.5H212.9zM212.9 777.8h665.3v44.5H212.9zM212.9 667h665.3v44.5H212.9z" fill="#9FA0A6" /><path d="M101.9 112.8h354.8c24.5 0 44.5 20 44.5 44.5V512c0 24.5-20 44.5-44.5 44.5H101.9c-24.5 0-44.5-20-44.5-44.5V156.9c0.3-24.2 20.2-44.1 44.5-44.1z" fill="#06E1F7" /><path d="M178.4 290.4h2.1c5.1 0 9.4 4.2 9.4 9.4v56.3c0 8.5-0.9 15.1-2.4 20-2.1 6.1-5.8 10.9-11.2 14.5-5.4 3.6-12.4 5.4-21.2 5.4-10.3 0-18.2-2.7-23.6-8.5-3.6-3.9-6.1-8.8-7.3-15.1-1.2-5.4 2.7-10.6 8.2-11.2l1.5-0.3c4.8-0.6 9.1 2.7 10.3 7.6 0.3 1.8 0.9 3 1.5 4.2 2.4 3.6 5.8 5.8 10.3 5.8 4.5 0 7.9-1.2 10-3.9 1.8-2.7 3-8.2 3-16.6v-57.8c0.1-5.5 4.3-9.8 9.4-9.8z m33.9 95.4v-86.6c0-4.8 3.9-8.8 8.8-8.8h25.1c12.7 0 21.2 0.6 24.8 1.5 6.1 1.5 10.9 4.8 14.8 10.3 3.9 5.1 6.1 12.1 6.1 20.3 0 6.4-1.2 11.8-3.3 16-2.4 4.2-5.1 7.9-8.8 10.3-3.6 2.4-7.3 4.2-10.9 4.8-5.1 0.9-12.4 1.5-21.8 1.5h-8.5c-3 0-5.4 2.4-5.4 5.4v25.1c0 4.8-3.9 8.8-8.8 8.8h-3.6c-4.8 0.2-8.5-3.8-8.5-8.6z m20.9-71.2V331c0 3.6 3 6.7 6.7 6.7h4.8c8.2 0 13.9-0.6 16.6-1.5 2.7-1.2 4.8-2.7 6.7-5.1 1.5-2.4 2.4-5.1 2.4-8.2 0-3.6-1.2-7-3.3-9.4-2.1-2.4-5.1-3.9-8.5-4.5-2.4-0.6-7.6-0.6-15.1-0.6h-3.6c-3.7-0.1-6.7 2.6-6.7 6.2z m124.1 33.6v-1.5c0-4.5 3.6-8.2 8.2-8.2h29.1c4.5 0 8.2 3.6 8.2 8.2v29.7c0 2.4-1.2 4.8-3 6.4-4.2 3.3-9.4 6.1-16 8.5-8.5 3.3-16.6 4.8-25.4 4.8-10.9 0-20.3-2.4-28.5-7-8.2-4.5-14.2-11.2-18.2-19.7-3.9-8.5-6.1-17.9-6.1-27.5 0-10.9 2.4-20.6 6.7-28.8s11.2-14.8 20-19.4c6.7-3.3 14.8-5.1 24.8-5.1 13 0 23 2.7 30.3 8.2 4.5 3.3 8.2 7.6 10.6 12.7 2.4 4.8-0.6 10.6-5.8 11.5l-5.4 0.9c-3.3 0.6-7-0.9-8.5-3.9-1.5-2.7-3.6-4.8-6.1-7-3.9-3-9.1-4.5-15.1-4.5-9.1 0-16.3 3-21.8 8.8-5.4 5.8-8.2 14.5-8.2 26 0 12.4 2.7 21.5 8.2 27.8 5.4 6.4 12.7 9.4 21.5 9.4 4.5 0 8.8-0.9 13.3-2.7 2.7-1.2 5.4-2.4 7.6-3.6 2.4-1.5 3.6-3.9 3.6-7v-0.9c0-4.5-3.6-8.2-8.2-8.2h-7.6c-4.5 0.3-8.2-3.3-8.2-7.9z" fill="#FFFFFF" /></svg>