<?xml version="1.0" standalone="no"?><!DOCTYPE svg PUBLIC "-//W3C//DTD SVG 1.1//EN" "http://www.w3.org/Graphics/SVG/1.1/DTD/svg11.dtd"><svg t="1562421597508" class="icon" viewBox="0 0 1024 1024" version="1.1" xmlns="http://www.w3.org/2000/svg" p-id="3039" xmlns:xlink="http://www.w3.org/1999/xlink" width="200" height="200"><defs><style type="text/css"></style></defs><path d="M880 310.4L611.2 48H192C166.4 48 144 70.4 144 96v832c0 25.6 22.4 48 48 48h640c25.6 0 48-22.4 48-48V310.4z" fill="#FFFFFF" p-id="3040"></path><path d="M832 992H192c-35.2 0-64-28.8-64-64V96C128 60.8 156.8 32 192 32h425.6L896 304V928c0 35.2-28.8 64-64 64zM192 64c-19.2 0-32 12.8-32 32v832c0 16 12.8 32 32 32h640c19.2 0 32-12.8 32-32V316.8L604.8 64H192z" fill="#424242" p-id="3041"></path><path d="M896 320h-204.8c-28.8 0-38.4-3.2-48-9.6-9.6-6.4-19.2-12.8-25.6-25.6s-9.6-19.2-9.6-48V32" fill="#424242" p-id="3042"></path><path d="M243.2 569.6h51.2v25.6c6.4-9.6 16-19.2 25.6-22.4 9.6-6.4 22.4-9.6 35.2-9.6 12.8 0 22.4 3.2 35.2 6.4 9.6 6.4 19.2 12.8 22.4 25.6 6.4-9.6 12.8-16 25.6-22.4 9.6-6.4 22.4-9.6 35.2-9.6 9.6 0 19.2 0 28.8 3.2 9.6 3.2 16 6.4 22.4 12.8 6.4 6.4 12.8 12.8 16 22.4 3.2 9.6 6.4 19.2 6.4 32V768h-54.4v-112-19.2c0-6.4-3.2-9.6-3.2-16l-9.6-9.6c-6.4-3.2-12.8-3.2-22.4-3.2-6.4 0-12.8 0-19.2 3.2-3.2 3.2-9.6 6.4-9.6 12.8s-3.2 9.6-6.4 16v128h-54.4v-112-16c0-6.4 0-9.6-3.2-16s-6.4-9.6-9.6-12.8c-6.4-3.2-12.8-3.2-22.4-3.2-3.2 0-6.4 0-9.6 3.2-3.2 0-9.6 3.2-12.8 6.4s-6.4 6.4-9.6 12.8c-3.2 6.4-3.2 12.8-3.2 22.4V768H243.2v-198.4z m486.4 99.2c0-9.6 0-16-3.2-22.4 0-6.4-3.2-12.8-6.4-19.2s-9.6-9.6-12.8-12.8c-6.4-3.2-12.8-6.4-22.4-6.4s-16 3.2-22.4 6.4-9.6 9.6-16 12.8l-9.6 19.2c-3.2 6.4-3.2 16-3.2 22.4 0 6.4 0 16 3.2 22.4 3.2 6.4 3.2 16 9.6 19.2 3.2 6.4 9.6 9.6 16 16 6.4 3.2 12.8 6.4 22.4 6.4 9.6 0 16-3.2 22.4-6.4 6.4-3.2 9.6-9.6 16-12.8 3.2-6.4 6.4-12.8 6.4-19.2v-25.6z m0 73.6c-6.4 9.6-16 19.2-25.6 22.4-9.6 3.2-22.4 6.4-35.2 6.4-16 0-28.8-3.2-38.4-9.6-12.8-6.4-19.2-12.8-28.8-22.4-6.4-9.6-12.8-22.4-16-35.2-3.2-12.8-6.4-25.6-6.4-38.4 0-12.8 3.2-25.6 6.4-38.4 3.2-12.8 9.6-22.4 16-32 6.4-9.6 16-16 28.8-22.4 9.6-6.4 22.4-9.6 38.4-9.6 12.8 0 22.4 3.2 32 6.4 9.6 6.4 19.2 12.8 25.6 22.4v-99.2h54.4V768h-51.2v-25.6z" fill="#424242" p-id="3043"></path></svg>