<?xml version="1.0" standalone="no"?><!DOCTYPE svg PUBLIC "-//W3C//DTD SVG 1.1//EN" "http://www.w3.org/Graphics/SVG/1.1/DTD/svg11.dtd"><svg class="icon" width="200px" height="200.00px" viewBox="0 0 1024 1024" version="1.1" xmlns="http://www.w3.org/2000/svg"><path d="M788.3 224.5h176.8v729.4c0 37.7-28.7 66.4-66.4 66.4H191.6c-37.7 0-66.4-28.7-66.4-66.4V70.1c0-37.7 28.7-66.4 66.4-66.4h552.6v176.8h44c0.1 0 0.1 44 0.1 44z m-66.3-22V25.7H191.6c-24.4 0-44.3 19.9-44.3 44.3v883.9c0 24.4 19.9 44.3 44.3 44.3h707.1c24.4 0 44.3-19.9 44.3-44.3V246.5H766.3v-44.3H722v0.3z" fill="#9FA0A6" /><path d="M213.7 887.6h663v44.3h-663zM213.7 776.9h663v44.3h-663zM213.7 666.4h663v44.3h-663z" fill="#9FA0A6" /><path d="M103.3 114.1h353.5c24.4 0 44.3 19.9 44.3 44.3V512c0 24.4-19.9 44.3-44.3 44.3H103.3C78.9 556.3 59 536.4 59 512V158.2c0.2-24.2 20.1-44.1 44.3-44.1z" fill="#06E1F7" /><path d="M125 388.9v-91.4c0-4.5 3.9-8.4 8.4-8.4H160c13.3 0 22 0.6 25.9 1.5 6.3 1.5 11.5 5.1 15.7 10.6 4.2 5.4 6.3 12.4 6.3 21.1 0 6.6-1.2 12.4-3.6 16.9-2.4 4.5-5.4 8.1-9 10.6-3.6 2.7-7.5 4.2-11.5 5.1-5.1 0.9-12.7 1.5-22.6 1.5h-5.7c-4.5 0-8.4 3.9-8.4 8.4v23.8c0 4.5-3.9 8.4-8.4 8.4h-4.8c-5 0.4-8.9-3.6-8.9-8.1z m22-73.3v13.9c0 4.5 3.9 8.4 8.4 8.4h3.6c8.7 0 14.5-0.6 17.2-1.8 3-1.2 5.1-3 6.9-5.4 1.5-2.4 2.4-5.1 2.4-8.4 0-3.9-1.2-7.2-3.6-9.7s-5.1-4.2-8.7-4.8c-2.7-0.6-7.8-0.6-15.7-0.6h-2.1c-4.8 0-8.4 3.9-8.4 8.4z m79 75.1v-95.6c0-3.6 2.7-6.3 6.3-6.3h11.5c2.1 0 4.2 1.2 5.4 3l36.2 58.8c1.8 3 6.3 1.8 6.3-1.8v-53.7c0-3.6 2.7-6.3 6.3-6.3h7.5c3.6 0 6.3 2.7 6.3 6.3v95.6c0 3.6-2.7 6.3-6.3 6.3h-12.1c-2.1 0-4.2-1.2-5.4-3l-35.3-57.3c-1.8-3-6.3-1.5-6.3 1.8v52.2c0 3.6-2.7 6.3-6.3 6.3h-7.5c-3.6 0.4-6.6-2.6-6.6-6.3z m159.3-39.8v-5.1c0-3.6 3-6.6 6.6-6.6H426c3.6 0 6.6 3 6.6 6.6v33.5c0 2.1-0.9 3.9-2.4 5.1-4.5 3.6-10.3 6.6-17.5 9.4-8.7 3.3-17.5 5.1-26.2 5.1-11.5 0-21.1-2.4-29.6-7.2s-14.8-11.5-19-20.5c-4.2-8.7-6.3-18.4-6.3-29 0-11.2 2.4-21.4 6.9-30.2 4.8-8.7 11.8-15.4 20.8-20.2 6.9-3.6 15.7-5.4 25.9-5.4 13.6 0 23.8 2.7 31.4 8.4 5.4 4.2 9.7 9.4 12.1 15.7 1.5 3.9-0.9 8.1-4.8 9l-9 1.8c-3 0.6-5.7-0.9-7.2-3.6-1.5-3-3.9-5.7-6.6-7.8-4.2-3-9.4-4.5-15.7-4.5-9.7 0-17.2 3-22.6 9-5.7 6-8.4 15.1-8.4 26.8 0 13 2.7 22.6 8.4 29 5.7 6.3 13.3 9.7 22.3 9.7 4.5 0 9-0.9 13.9-2.7 3.3-1.2 6-2.7 8.7-4.2 1.8-1.2 3-3.3 3-5.7v-3.6c0-3.6-3-6.6-6.6-6.6h-11.8c-4 0.5-7-2.6-7-6.2z" fill="#FCFCFC" /></svg>