<?xml version="1.0" standalone="no"?><!DOCTYPE svg PUBLIC "-//W3C//DTD SVG 1.1//EN" "http://www.w3.org/Graphics/SVG/1.1/DTD/svg11.dtd"><svg class="icon" width="200px" height="200.00px" viewBox="0 0 1024 1024" version="1.1" xmlns="http://www.w3.org/2000/svg"><path d="M85.333333 56.888889v910.222222c0 34.133333 22.755556 56.888889 56.888889 56.888889h739.555556c34.133333 0 56.888889-22.755556 56.888889-56.888889V284.444444l-284.444445-284.444444h-512c-34.133333 0-56.888889 22.755556-56.888889 56.888889z" fill="#F95F30" /><path d="M938.666667 284.444444h-284.444445V0z" fill="#FFCCC0" /><path d="M369.777778 802.133333V398.222222h153.6c28.444444 0 45.511111 0 62.577778 5.688889 22.755556 5.688889 34.133333 11.377778 51.2 17.066667 11.377778 11.377778 22.755556 22.755556 34.133333 39.822222 5.688889 17.066667 11.377778 34.133333 11.377778 51.2 0 34.133333-11.377778 62.577778-34.133334 85.333333-22.755556 22.755556-62.577778 34.133333-119.466666 34.133334H426.666667V796.444444h-56.888889z m56.888889-210.488889h108.088889c34.133333 0 56.888889-5.688889 73.955555-17.066666 17.066667-11.377778 22.755556-28.444444 22.755556-56.888889 0-17.066667-5.688889-34.133333-11.377778-45.511111-11.377778-11.377778-22.755556-22.755556-34.133333-22.755556-11.377778 0-28.444444-5.688889-51.2-5.688889H426.666667v147.911111z" fill="#FFFFFF" /></svg>