<?xml version="1.0" standalone="no"?><!DOCTYPE svg PUBLIC "-//W3C//DTD SVG 1.1//EN" "http://www.w3.org/Graphics/SVG/1.1/DTD/svg11.dtd"><svg class="icon" width="200px" height="200.00px" viewBox="0 0 1024 1024" version="1.1" xmlns="http://www.w3.org/2000/svg"><path d="M160 64c-35.2 0-64 28.8-64 64v800c0 35.2 28.8 64 64 64h672c35.2 0 64-28.8 64-64V246.4L713.6 64H160z" fill="#FFFFFF" /><path d="M387.2 556.8h-54.4V640c0 12.8-3.2 22.4-9.6 28.8s-12.8 9.6-22.4 9.6-16-3.2-22.4-9.6-6.4-16-6.4-28.8v-230.4c0-12.8 3.2-22.4 9.6-28.8s16-9.6 28.8-9.6h76.8c22.4 0 41.6 3.2 54.4 6.4 12.8 3.2 22.4 9.6 32 16s16 16 19.2 28.8 6.4 25.6 6.4 38.4c0 28.8-9.6 54.4-28.8 70.4-16 16-44.8 25.6-83.2 25.6z m-12.8-137.6h-41.6V512h41.6c12.8 0 25.6 0 35.2-3.2s16-6.4 22.4-16 6.4-16 6.4-25.6c0-12.8-3.2-22.4-12.8-32-6.4-12.8-25.6-16-51.2-16z m348.8 185.6c0 16-3.2 28.8-9.6 38.4s-19.2 19.2-32 25.6-32 9.6-54.4 9.6c-19.2 0-38.4-3.2-51.2-9.6-12.8-6.4-25.6-12.8-32-22.4s-9.6-19.2-9.6-28.8c0-6.4 3.2-12.8 6.4-16s9.6-6.4 16-6.4 9.6 0 12.8 3.2 6.4 6.4 9.6 12.8c6.4 9.6 12.8 16 19.2 22.4s19.2 6.4 32 6.4c9.6 0 19.2-3.2 28.8-6.4s9.6-9.6 9.6-16c0-9.6-3.2-16-9.6-22.4s-19.2-9.6-35.2-12.8c-19.2-3.2-35.2-9.6-48-16s-22.4-12.8-28.8-19.2c-6.4-9.6-9.6-19.2-9.6-32 0-9.6 3.2-22.4 9.6-32s16-19.2 28.8-22.4 28.8-9.6 48-9.6c12.8 0 28.8 0 38.4 3.2s22.4 6.4 28.8 12.8 12.8 9.6 16 16 6.4 12.8 6.4 19.2c0 6.4-3.2 12.8-6.4 16s-9.6 6.4-19.2 6.4c-6.4 0-9.6-3.2-16-6.4s-9.6-9.6-12.8-16-9.6-9.6-16-12.8-12.8-6.4-22.4-6.4c-9.6 0-19.2 3.2-25.6 6.4s-9.6 9.6-9.6 16 3.2 9.6 6.4 12.8 12.8 6.4 19.2 9.6 19.2 6.4 35.2 9.6c16 3.2 32 9.6 41.6 16s19.2 12.8 25.6 19.2 9.6 22.4 9.6 32z" fill="#4990E2" /><path d="M908.8 220.8l-182.4-182.4c-3.2-3.2-6.4-6.4-12.8-6.4H160C115.2 32 80 67.2 80 112v800C80 956.8 115.2 992 160 992h672c44.8 0 80-35.2 80-80V230.4c0-3.2-3.2-6.4-3.2-9.6z m-51.2 3.2H768c-25.6 0-48-22.4-48-48V86.4L857.6 224zM832 960H160c-25.6 0-48-22.4-48-48v-800C112 86.4 134.4 64 160 64h528v112C688 220.8 723.2 256 768 256h112v656c0 25.6-22.4 48-48 48z" fill="#CECECE" /></svg>