<?xml version="1.0" standalone="no"?><!DOCTYPE svg PUBLIC "-//W3C//DTD SVG 1.1//EN" "http://www.w3.org/Graphics/SVG/1.1/DTD/svg11.dtd"><svg class="icon" width="200px" height="200.00px" viewBox="0 0 1024 1024" version="1.1" xmlns="http://www.w3.org/2000/svg"><path fill="#1296db" d="M836.855172 0v217.158621h132.413794z"  /><path fill="#1296db" d="M969.268966 296.606897V247.172414h-167.724138V0H54.731034v1024H971.034483l-1.765517-727.393103zM497.875862 82.97931l42.372414 65.324138c7.062069 10.593103 14.124138 22.951724 21.186207 33.544828 7.062069-10.593103 14.124138-22.951724 21.186207-35.310345l42.372413-63.558621h37.075863l-86.510345 125.351724V300.137931h-31.779311v-91.806897L459.034483 82.97931h38.841379z m-227.751724 0H353.103448c14.124138 0 24.717241 0 33.544828 1.765518 10.593103 1.765517 19.42069 5.296552 26.482758 10.593103 7.062069 5.296552 14.124138 12.358621 17.655173 21.186207 5.296552 8.827586 7.062069 19.42069 7.062069 30.013793 0 19.42069-5.296552 35.310345-17.655173 47.668966-12.358621 12.358621-33.544828 19.42069-63.55862 19.420689h-52.965517V300.137931h-31.779311V82.97931z m681.489655 921.6H72.386207V388.413793h879.227586v616.165517z"  /><path fill="#1296db" d="M395.475862 176.551724c7.062069-7.062069 10.593103-15.889655 10.593104-28.248276 0-8.827586-1.765517-15.889655-7.062069-21.186207-3.531034-5.296552-10.593103-10.593103-17.655173-12.35862-5.296552-1.765517-14.124138-1.765517-26.482758-1.765518h-52.965518v72.386207h52.965518c19.42069 0 31.77931-3.531034 40.606896-8.827586zM446.675862 768l-88.275862-88.275862 88.275862-88.275862h-68.855172l-84.744828 86.510345 84.744828 90.041379zM577.324138 768h68.855172l84.744828-90.041379-84.744828-86.510345h-68.855172l88.275862 88.275862z"  /></svg>