<?xml version="1.0" standalone="no"?><!DOCTYPE svg PUBLIC "-//W3C//DTD SVG 1.1//EN" "http://www.w3.org/Graphics/SVG/1.1/DTD/svg11.dtd"><svg class="icon" width="200px" height="200.00px" viewBox="0 0 1024 1024" version="1.1" xmlns="http://www.w3.org/2000/svg"><path d="M670.117647 0H138.541176C121.976471 0 112.941176 13.552941 112.941176 36.141176v968.282353c0 6.023529 13.552941 19.576471 25.6 19.576471h731.858824c16.564706 0 25.6-13.552941 25.6-19.576471V237.929412c0-13.552941-3.011765-16.564706-3.011765-19.576471L679.152941 7.529412c1.505882-7.529412-3.011765-7.529412-9.035294-7.529412z" fill="#F4EFEC" /><path d="M874.917647 1020.988235H141.552941c-16.564706 0-25.6-13.552941-25.6-25.6V715.294118h787.576471v280.094117c-3.011765 12.047059-16.564706 25.6-28.611765 25.6z" fill="#509DF4" /><path d="M680.658824 0v221.364706h219.858823z" fill="#D9D2CA" /><path d="M388.517647 861.364706h-48.188235v58.729412h55.717647v22.588235H252.988235v-22.588235h51.2v-58.729412H262.023529v-25.6h42.164706v-33.129412h36.141177v33.129412h48.188235v25.6z m6.023529-64.752941H256v52.705882c3.011765 55.717647-13.552941 87.341176-48.188235 103.905882v-22.588235c9.035294-9.035294 13.552941-33.129412 13.552941-64.752941v-94.870588h174.682353v25.6z m-19.57647 75.294117c6.023529 9.035294 9.035294 22.588235 13.552941 39.152942h-28.611765c-3.011765-13.552941-3.011765-25.6-9.035294-39.152942h24.094118z m146.070588-39.152941v-22.588235h87.341177v22.588235H579.764706c0 6.023529-3.011765 9.035294-3.011765 16.564706h28.611765v70.776471c0 16.564706-6.023529 25.6-25.6 25.6h-55.717647v-97.882353h22.588235c3.011765-3.011765 3.011765-9.035294 3.011765-16.564706h-28.611765z m84.329412-61.741176v33.129411h-28.611765v-9.035294h-67.764706v9.035294h-25.6c-6.023529 28.611765-16.564706 52.705882-36.141176 70.776471 9.035294 0 19.576471 0 28.611765-3.011765v22.588236c-16.564706 3.011765-36.141176 6.023529-58.729412 6.023529v-25.6c9.035294-9.035294 16.564706-19.576471 22.588235-33.129412H414.117647v-22.588235c9.035294-16.564706 16.564706-36.141176 19.576471-58.729412h28.611764c-3.011765 22.588235-13.552941 42.164706-25.6 58.729412h13.552942c0-3.011765 0-6.023529 3.011764-9.035294 0-3.011765 3.011765-6.023529 3.011765-9.035294h22.588235v-28.611765h45.176471v-9.035294h36.141176v9.035294h45.176471v-1.505882z m-123.482353 182.211764V858.352941h-3.011765c-3.011765 0-6.023529 0-9.035294 3.011765v-16.564706c13.552941-6.023529 19.576471-19.576471 22.588235-36.141176h28.611765c-3.011765 13.552941-3.011765 19.576471-9.035294 28.611764v117.458824h-28.611765v-1.505883z m-3.011765-24.094117c-19.576471 6.023529-39.152941 6.023529-61.741176 6.023529v-22.588235c22.588235 0 42.164706-3.011765 61.741176-6.02353v22.588236z m87.341177-3.011765c6.023529 0 9.035294-3.011765 9.035294-9.035294v-9.035294H549.647059v19.57647h16.564706z m7.529411-54.211765h-25.6v19.576471h25.6v-19.576471z m225.882353-97.882353v94.870589c0 22.588235-9.035294 33.129412-28.611764 33.129411h-22.588236v-22.588235h6.02353c6.023529 0 9.035294-3.011765 9.035294-9.035294v-70.776471h-84.329412c-6.023529 9.035294-16.564706 13.552941-28.611765 19.576471h97.882353v45.176471c0 22.588235-9.035294 33.129412-28.611764 33.129411h-36.141177v19.576471c0 9.035294 3.011765 13.552941 13.552941 13.552941h84.329412c6.023529 0 9.035294-3.011765 9.035294-9.035294v-9.035294h28.611765v13.552941c0 19.576471-9.035294 25.6-28.611765 25.6h-109.929411c-19.576471 0-28.611765-9.035294-28.611765-28.611765v-97.882353l-9.035294 3.011765c-3.011765 0-6.023529 0-9.035294 3.011765v-22.588235c19.576471-6.023529 28.611765-22.588235 36.141176-42.164706h36.141177s0 3.011765-3.011765 6.023529l-3.011765 6.023529h99.388235v-4.517647z m-118.964705 64.752942v33.129411h22.588235c6.023529 0 9.035294-3.011765 9.035294-9.035294v-22.588235h-31.623529z" fill="#FFFFFF" /><path d="M298.164706 33.129412h67.764706v45.17647h-67.764706v-45.17647z m-69.270588 45.17647h67.764706v45.176471H228.894118v-45.176471z m69.270588 45.176471h67.764706v45.176471h-67.764706v-45.176471z m-69.270588 45.176471h67.764706v45.17647H228.894118v-45.17647z m69.270588 45.17647h67.764706v45.176471h-67.764706v-45.176471z m-69.270588 46.682353h67.764706v45.176471H228.894118v-45.176471z m69.270588 45.176471v45.17647H228.894118v159.62353c0 13.552941 9.035294 22.588235 22.588235 22.588235h90.352941c13.552941 0 22.588235-9.035294 22.588235-22.588235V302.682353l-66.258823 3.011765z m45.17647 185.223529h-90.352941v-45.176471h90.352941v45.176471z" fill="#509DF4" /></svg>