<?xml version="1.0" standalone="no"?><!DOCTYPE svg PUBLIC "-//W3C//DTD SVG 1.1//EN" "http://www.w3.org/Graphics/SVG/1.1/DTD/svg11.dtd"><svg class="icon" width="200px" height="200.00px" viewBox="0 0 1024 1024" version="1.1" xmlns="http://www.w3.org/2000/svg"><path fill="#1296db" d="M538.112 540.672c-16.896 0-31.232 5.632-42.496 16.896-16.384 16.384-25.088 43.008-25.088 73.728 0 28.672 8.704 54.272 24.576 70.656 11.264 11.264 25.088 16.896 41.472 16.896 46.592 0 67.072-45.568 67.072-90.624 0.512-41.472-19.968-87.552-65.536-87.552z"  /><path fill="#1296db" d="M880.64 430.08V353.28l-276.48-276.48H143.36v353.28H76.288v399.36H143.36v117.76h737.28v-117.76h66.048V430.08H880.64z m-215.04-204.8l66.56 66.56h-66.56V225.28z m-355.328 426.496c-49.664-17.408-73.728-44.544-73.728-82.432 0-46.592 39.424-80.384 93.184-80.384 32.256 0 52.224 8.704 61.44 13.824l9.216 5.12-16.896 50.688-13.312-7.168c-8.704-4.608-22.528-10.24-40.96-10.24-25.088 0-33.792 13.312-33.792 24.576 0 13.824 6.144 22.528 41.472 35.84 35.328 13.824 71.68 34.304 71.68 84.992 0 58.368-50.176 84.48-99.84 84.48-25.6 0-54.784-7.168-70.656-17.92l-7.68-5.12 15.872-51.712 14.336 8.704c14.336 9.216 33.792 14.336 50.688 14.336 24.576 0 39.424-11.264 39.424-29.696-1.536-15.36-7.68-25.6-40.448-37.888zM819.2 885.76H204.8v-56.32h614.4v56.32z m-164.352-134.656l14.848 2.56-17.92 52.224-11.264-3.072c-33.28-8.704-66.56-18.944-96.256-29.184-4.096-1.536-8.192-3.072-10.752-3.072-60.928-2.048-122.368-46.08-122.368-138.752 0-84.48 52.736-143.872 128.512-143.872 73.216 0 123.904 56.832 123.904 138.752 0 50.688-17.92 91.648-49.664 115.712 14.848 4.096 29.184 6.656 40.96 8.704z m188.416-36.352v52.736h-163.84V493.056H737.28v221.696h105.984zM819.2 430.08H204.8V138.24h399.36v215.04h215.04v76.8z"  /></svg>