<?xml version="1.0" standalone="no"?><!DOCTYPE svg PUBLIC "-//W3C//DTD SVG 1.1//EN" "http://www.w3.org/Graphics/SVG/1.1/DTD/svg11.dtd"><svg class="icon" width="200px" height="200.00px" viewBox="0 0 1024 1024" version="1.1" xmlns="http://www.w3.org/2000/svg"><path d="M170.753375 1021.740522V2.226087h505.922783l302.892522 299.776v719.738435H170.753375z" fill="#FFFFFF" /><path d="M675.752332 4.452174l301.634782 298.473739V1019.547826H172.979462V4.452174h502.77287m1.836522-4.452174H168.527288v1024h813.267479V301.06713L677.588854 0z" fill="#CCCCCC" /><path d="M706.873027 300.699826a26.790957 26.790957 0 0 1-26.713043-26.768696V5.36487l296.292174 295.334956z" fill="#FFFFFF" /><path d="M682.341549 10.718609l288.678957 287.75513H706.873027a24.56487 24.56487 0 0 1-24.486956-24.486956V10.718609m-4.452174-10.718609v273.942261a28.93913 28.93913 0 0 0 28.93913 28.93913h274.92174L677.889375 0z" fill="#CCCCCC" /><path d="M44.40068 486.38887m11.130434 0l662.594783 0q11.130435 0 11.130435 11.130434l0 319.065044q0 11.130435-11.130435 11.130435l-662.594783 0q-11.130435 0-11.130434-11.130435l0-319.065044q0-11.130435 11.130434-11.130434Z" fill="#FE7801" /><path d="M122.436158 685.979826l50.44313-3.149913q1.636174 12.243478 6.678261 18.665739 8.20313 10.384696 23.373913 10.384696 11.353043 0 17.497044-5.309218t6.144-12.31026q0-6.678261-5.843479-11.898435T193.548506 672.445217q-34.871652-7.791304-49.741913-20.75826t-14.937044-33.024a44.8 44.8 0 0 1 7.66887-24.909914q7.66887-11.720348 23.05113-18.432t42.195478-6.67826q32.890435 0 50.15374 12.243478t20.535652 38.789565L222.487636 622.514087q-1.981217-11.553391-8.370087-16.795826t-17.608348-5.253565q-9.249391 0-13.924174 3.906782a11.965217 11.965217 0 0 0-4.685913 9.516522q0 4.073739 3.862261 7.346087t17.808696 6.299826q34.760348 7.468522 49.808696 15.104t21.882434 18.921739a47.972174 47.972174 0 0 1 6.878609 25.355131 54.060522 54.060522 0 0 1-9.126956 30.330434 57.09913 57.09913 0 0 1-25.510957 21.058783q-16.39513 7.17913-41.316174 7.17913-43.776 0-60.627478-16.806956t-19.122087-42.696348zM287.923462 571.536696h55.429565l38.611479 123.080347 38.121739-123.080347h53.815652l-63.710609 171.030261H352.713723zM569.289723 680.614957v-35.617392h81.931131V717.913043q-23.518609 15.994435-41.605566 21.76t-42.896695 5.776696q-30.553043 0-49.797566-10.384696a71.112348 71.112348 0 0 1-29.851826-30.920347q-10.596174-20.535652-10.596174-47.126261 0-28.004174 11.597913-48.706783a74.907826 74.907826 0 0 1 33.936696-31.443478q17.430261-8.281043 46.937044-8.281044 28.438261 0 42.540521 5.131131a55.362783 55.362783 0 0 1 23.373913 15.927652q9.305043 10.785391 13.990957 27.358609l-51.2 9.093565a27.614609 27.614609 0 0 0-10.707478-14.814609q-7.546435-5.13113-19.255653-5.13113-17.430261 0-27.826086 12.076522t-10.362435 38.199652q0 27.759304 10.484869 39.668869t29.195131 11.898435a55.652174 55.652174 0 0 0 16.973913-2.57113 90.89113 90.89113 0 0 0 18.598956-8.659479v-16.15026z" fill="#FFFFFF" /></svg>