<?xml version="1.0" standalone="no"?><!DOCTYPE svg PUBLIC "-//W3C//DTD SVG 1.1//EN" "http://www.w3.org/Graphics/SVG/1.1/DTD/svg11.dtd"><svg class="icon" width="200px" height="200.00px" viewBox="0 0 1024 1024" version="1.1" xmlns="http://www.w3.org/2000/svg"><path d="M788.6 224.2h176.9v730.1c0 37.7-28.7 66.4-66.4 66.4H191.3c-37.7 0-66.4-28.7-66.4-66.4V69.7c0-37.7 28.7-66.4 66.4-66.4h553.2v176.9h44.1v44z m-66.4-22.3V25H191.3C166.9 25 147 44.9 147 69.4V954c0 24.5 19.9 44.4 44.4 44.4h707.8c24.5 0 44.4-19.9 44.4-44.4V246.3H766.5v-44.4h-44.3z" fill="#9FA0A6" /><path d="M213.4 887.6h663.7V932H213.4zM213.4 777.1h663.7v44.4H213.4zM213.4 666.6h663.7V711H213.4z" fill="#9FA0A6" /><path d="M102.9 113.4h353.9c24.5 0 44.4 19.9 44.4 44.4v353.9c0 24.5-19.9 44.4-44.4 44.4H102.9c-24.5 0-44.4-19.9-44.4-44.4V157.8c0.3-24.4 20.2-44.4 44.4-44.4z" fill="#0668B2" /><path d="M328.7 224.9c19.9 1.2 37.7 10.9 46.8 32.6 9.4 22 5.1 42.6-10.9 60.4-11.5 12.4-23.9 24.2-35.9 35.9-5.1 5.1-13.6 5.4-18.1 0.6-4.5-4.8-4.2-11.5 1.5-16.9 11.8-11.8 23.9-23.6 35.6-35.6 17.5-18.1 9.7-46.8-14.5-53.1-10.3-2.7-19.9-0.9-27.5 6.3-12.4 11.5-24.2 23.9-36.5 35.3-2.7 2.4-6.9 4.5-10.3 4.2-9.1-0.6-13.6-11.5-7.2-18.1 13.6-14.2 27.2-27.8 41.7-41.1 8.4-7.8 20.2-10.5 35.3-10.5zM166.9 383.4c0-15.1 5.4-28.4 16-39.3 11.8-12.1 23.6-23.9 35.6-35.6 5.7-5.7 12.7-6 17.5-1.2 4.8 5.1 4.5 11.5-1.5 17.2-11.5 11.5-22.9 22.6-34.1 34.1-13.9 14.2-14.5 33.2-1.8 46.2 12.4 12.4 32.6 12.4 45.3 0 11.8-11.5 22.9-22.9 34.4-34.4 6.9-6.9 17.5-4.2 19.3 4.8 0.6 3.3-0.6 8.2-3 10.6-12.7 13.3-25.1 26.6-39 38.6-16.9 14.8-36.5 17.2-57.1 8.2-19.2-8.2-31.6-27.5-31.6-49.2zM320.6 297c-0.6 1.5-1.5 4.2-3.6 6.3-23.2 23.6-46.2 46.8-69.7 70.1-4.8 4.8-12.1 4.5-16.6 0-4.8-4.8-4.5-11.2 0.6-16.6L300 288c3.6-3.6 8.2-5.1 13.3-3 4.9 2.1 7 5.4 7.3 12z" fill="#FFFFFF" /></svg>