<?xml version="1.0" standalone="no"?><!DOCTYPE svg PUBLIC "-//W3C//DTD SVG 1.1//EN" "http://www.w3.org/Graphics/SVG/1.1/DTD/svg11.dtd"><svg class="icon" width="200px" height="200.00px" viewBox="0 0 1024 1024" version="1.1" xmlns="http://www.w3.org/2000/svg"><path fill="#1296db" d="M0 146.30607C0 65.503459 65.515703 0 146.30607 0L877.69393 0C958.496541 0 1024 65.515703 1024 146.30607L1024 877.69393C1024 958.496541 958.484297 1024 877.69393 1024L146.30607 1024C65.503459 1024 0 958.484297 0 877.69393L0 146.30607ZM841.801969 270.628571 182.890686 270.628571C153.770693 270.628571 130.182268 294.220727 130.182268 323.322317L130.182268 707.995173C130.182268 737.092491 153.770693 760.685714 182.890686 760.685714L841.801969 760.685714C870.910223 760.685714 894.510387 737.092491 894.510387 707.995173L894.510387 323.322317C894.510387 294.220727 870.910223 270.628571 841.801969 270.628571ZM388.470287 339.130434 485.994789 339.130434 485.994789 312.782497 388.470287 312.782497 388.470287 339.130434ZM580.584346 508.811973C583.034763 510.224538 584.54065 512.833083 584.54065 515.659279 584.54065 518.484407 583.034763 521.092952 580.584346 522.506584L452.017723 596.704578C450.804261 597.414064 449.437104 597.764001 448.061418 597.764001 446.701736 597.764001 445.330315 597.414064 444.121117 596.704578 441.665368 595.300549 440.160541 592.683469 440.160541 589.861537L440.160541 441.455945C440.160541 438.629749 441.665368 436.016933 444.121117 434.60864 446.556592 433.196076 449.57478 433.196076 452.017723 434.60864L580.584346 508.811973ZM238.245895 723.802229 335.761861 723.802229 335.761861 697.45536 238.245895 697.45536 238.245895 723.802229ZM238.245895 339.130434 335.761861 339.130434 335.761861 312.782497 238.245895 312.782497 238.245895 339.130434ZM388.470287 723.802229 485.994789 723.802229 485.994789 697.45536 388.470287 697.45536 388.470287 723.802229ZM636.214908 723.802229 538.710682 723.802229 538.710682 697.45536 636.218105 697.45536 636.218105 723.802229 636.214908 723.802229ZM636.214908 339.130434 538.710682 339.130434 538.710682 312.782497 636.218105 312.782497 636.218105 339.130434 636.214908 339.130434ZM688.943601 723.802229 786.459568 723.802229 786.459568 697.45536 688.943601 697.45536 688.943601 723.802229ZM688.943601 339.130434 786.459568 339.130434 786.459568 312.782497 688.943601 312.782497 688.943601 339.130434Z" /></svg>