<?xml version="1.0" standalone="no"?><!DOCTYPE svg PUBLIC "-//W3C//DTD SVG 1.1//EN" "http://www.w3.org/Graphics/SVG/1.1/DTD/svg11.dtd"><svg class="icon" width="200px" height="200.00px" viewBox="0 0 1024 1024" version="1.1" xmlns="http://www.w3.org/2000/svg"><path d="M788.7 224.2h176.9v730.1c0 37.7-28.7 66.4-66.4 66.4h-708c-37.7 0-66.4-28.7-66.4-66.4V69.7c0-37.7 28.7-66.4 66.4-66.4h553.2v176.9h44.4l-0.1 44z m-66.4-22V25.3H191.2c-24.5 0-44.4 19.9-44.4 44.4v884.7c0 24.5 19.9 44.4 44.4 44.4H899c24.5 0 44.4-19.9 44.4-44.4V246.6h-177v-44.4h-44.1z" fill="#9FA0A6" /><path d="M213.5 887.9h663.7v44.4H213.5zM213.5 777.4h663.7v44.4H213.5zM213.5 666.9h663.7v44.4H213.5z" fill="#9FA0A6" /><path d="M102.7 113.7h353.9c24.5 0 44.4 19.9 44.4 44.4V512c0 24.5-19.9 44.4-44.4 44.4H102.7c-24.5 0-44.4-19.9-44.4-44.4V158.1c0.3-24.4 20.3-44.4 44.4-44.4z" fill="#E05814" /><path d="M303.5 250.5H152.8c-1.8 0-3.6 0.3-5.4 0.6-10.3 1.8-18.1 10.9-18.1 21.1v119.9c0 3.6 0.9 6.9 2.7 10 4.5 7.9 11.8 11.5 20.5 11.5h150.7c13 0 23.9-10.9 23.9-23.9V274.4c0.3-13-10.3-23.9-23.6-23.9zM407.7 273.8h-9.1c-0.6 0-1.5 0.3-2.1 0.6-18.7 11.2-37.4 22.6-56.5 33.8-0.6 0.3-0.9 0.9-0.9 1.8v44.4c0 0.9 0.3 1.2 0.9 1.8 18.1 10.9 36.5 21.7 54.7 32.9 1.8 1.2 3.3 1.5 5.4 1.5h8.5V274.1c-0.3-0.3-0.6-0.3-0.9-0.3z" fill="#FFFFFF" /></svg>