<?xml version="1.0" standalone="no"?><!DOCTYPE svg PUBLIC "-//W3C//DTD SVG 1.1//EN" "http://www.w3.org/Graphics/SVG/1.1/DTD/svg11.dtd"><svg class="icon" width="200px" height="200.00px" viewBox="0 0 1024 1024" version="1.1" xmlns="http://www.w3.org/2000/svg"><path d="M788.2 224.7h176.7v729c0 36.5-29.5 66.3-66.3 66.3H191.8c-36.5 0-66.3-29.5-66.3-66.3V70.3C125.5 33.8 155 4 191.8 4h552.4v176.7h44.3v44h-0.3z m-66.4-22V26h-530c-24.4 0-44.3 19.9-44.3 44.3v883.4c0 24.4 19.9 44.3 44.3 44.3h706.7c24.4 0 44.3-19.9 44.3-44.3v-707H766.2v-44.3h-44.3v0.3z" fill="#9FA0A6" /><path d="M213.8 887.4h662.7v44.3H213.8zM213.8 777h662.7v44.3H213.8zM213.8 666.4h662.7v44.3H213.8z" fill="#9FA0A6" /><path d="M103.5 114.3h353.4c24.4 0 44.3 19.9 44.3 44.3V512c0 24.4-19.9 44.3-44.3 44.3H103.5c-24.4 0-44.3-19.9-44.3-44.3V158.3c-0.1-24.1 19.8-44 44.3-44z" fill="#5C76B8" /><path d="M412.8 202.7c-8.7 0-22 6.6-22 19.9v170l-99.5-99.5h-2.4l-2.1-2.1c-2.1 0-6.6-2.1-11.2 0H269c-2.1 0-2.1 2.1-2.1 2.1l-97.1 101.6v-170c0-15.4-13.3-19.9-22-19.9s-19.9 4.5-19.9 19.9v227.6c0 8.7 6.6 17.8 15.4 19.9 4.5 0 11.2 0 15.4-4.5l123.6-121.5 126 121.5c2.1 2.1 4.5 2.1 4.5 4.5 2.1 0 4.5 2.1 6.6 2.1 8.7 0 17.8-8.7 17.8-19.9V222.6c-2.4-15.7-15.7-19.9-24.4-19.9z" fill="#FFFFFF" /></svg>