<?xml version="1.0" standalone="no"?><!DOCTYPE svg PUBLIC "-//W3C//DTD SVG 1.1//EN" "http://www.w3.org/Graphics/SVG/1.1/DTD/svg11.dtd"><svg class="icon" width="200px" height="200.00px" viewBox="0 0 1024 1024" version="1.1" xmlns="http://www.w3.org/2000/svg"><path fill="#1296db" d="M232.2 465.2v376.2h698.7V465.2H232.2z m186 276.5l-35.3-65.3c-1.3-2.4-2.6-6.6-3.9-12.8h-0.5c-0.7 3-2.2 7.4-4.6 13.2l-35.4 64.9h-50.1l63.1-98.4-57.8-98.3h51l29.3 60.2c2.4 4.9 4.4 10.3 6.1 16.3h0.5c1.8-5.3 3.9-11 6.5-16.9l32.4-59.5h46.8L407 642.5l60.9 99.2h-49.7z m295.3 0h-41.4V622.3c0-11 0.5-24.8 1.7-41.5h-1c-2.5 12.6-4.6 21-6.1 25.3l-48.5 135.6h-33.4l-49.1-134.3c-1.2-3.2-3.3-12.1-6.2-26.5h-1.1c1.1 16.5 1.7 33.1 1.7 49.6v111.2H492V545h61l42.4 118.8c3.6 9.8 6 19 7.2 27.7h0.9c2.6-10.7 5.3-20.1 8.1-27.9L654.2 545h59.3v196.7z m161.3 0H759.4V545h41.9v162.4h73.5v34.3zM581.2 82.4H97.5v860h645V834.9h-53.8v53.8H151.2V136.1h322.5v215h215v107.5h53.8v-215L581.2 82.4z m107.5 215H527.5V136.1h32.2l129 129v32.3z" /></svg>